<?xml version="1.0" standalone="no"?>
<!DOCTYPE svg PUBLIC "-//W3C//DTD SVG 20010904//EN"
 "http://www.w3.org/TR/2001/REC-SVG-20010904/DTD/svg10.dtd">
<svg version="1.0" xmlns="http://www.w3.org/2000/svg"
 width="512.000000pt" height="512.000000pt" viewBox="0 0 512.000000 512.000000"
 preserveAspectRatio="xMidYMid meet">

<g transform="translate(0.000000,512.000000) scale(0.100000,-0.100000)"
fill="#000000" stroke="none">
<path d="M1744 4944 c-52 -19 -111 -75 -135 -128 -36 -80 -16 -199 44 -265 12
-13 45 -34 72 -47 119 -56 255 -9 318 110 28 54 29 156 3 206 -58 112 -190
166 -302 124z"/>
<path d="M294 3236 c-100 -31 -164 -122 -164 -230 0 -77 25 -131 79 -177 97
-84 242 -78 328 12 122 128 71 337 -96 394 -53 18 -92 18 -147 1z"/>
<path d="M2735 2928 c-412 -82 -1171 -232 -1685 -334 -514 -102 -950 -189
-967 -195 -43 -14 -73 -53 -73 -95 0 -76 79 -274 154 -386 122 -184 333 -334
561 -400 70 -20 101 -23 255 -22 170 0 181 2 418 51 l242 50 0 -91 c0 -97 18
-196 46 -261 l17 -40 13 64 c28 132 78 251 191 444 36 62 50 77 66 75 30 -4
57 -50 108 -175 24 -59 53 -125 65 -146 l22 -39 26 35 c14 18 45 78 69 133 40
91 46 99 71 99 24 0 31 -7 51 -57 47 -116 74 -291 56 -368 -5 -24 -8 -46 -6
-48 8 -9 167 154 221 227 32 44 91 140 129 213 55 105 76 135 97 142 34 12 60
-9 93 -74 63 -124 55 -358 -19 -533 l-15 -37 -1071 0 c-1172 0 -1109 3 -1174
-58 -61 -58 -66 -81 -66 -362 0 -249 1 -256 24 -307 17 -36 38 -60 67 -80 41
-27 47 -28 196 -31 l153 -3 0 -100 c0 -93 2 -102 25 -124 l24 -25 1438 0
c1164 1 1441 3 1455 14 28 21 38 62 38 152 l0 84 138 0 c149 0 194 12 239 61
49 54 53 80 53 361 0 295 -6 321 -71 370 -63 47 -76 48 -561 48 l-460 0 52 58
c66 74 117 178 129 262 11 81 2 149 -22 164 -15 9 -29 -2 -97 -76 -44 -47
-108 -106 -143 -131 -62 -44 -149 -97 -159 -97 -3 0 7 37 23 83 56 164 61 361
13 519 -3 12 12 28 56 58 80 55 184 159 244 247 l48 71 728 144 c806 160 787
154 832 241 38 73 25 177 -31 241 -28 31 -90 57 -140 58 -37 0 -1174 -217
-1242 -238 -14 -4 -17 11 -22 98 -11 176 -36 219 -126 217 -25 -1 -383 -68
-796 -151z m-96 -1175 c-55 -61 -181 -175 -186 -169 -3 2 3 25 12 52 9 26 18
66 22 89 l5 42 77 15 c120 24 119 24 70 -29z m726 -390 c23 -22 15 -77 -20
-149 l-26 -54 -162 0 -162 1 110 57 c67 35 131 77 165 109 60 57 70 61 95 36z
m-885 -623 l0 -270 -832 0 c-760 0 -833 1 -850 17 -16 15 -18 36 -18 251 0
205 2 238 17 254 15 17 55 18 850 18 l833 0 0 -270z m1834 254 c14 -13 16 -51
16 -258 0 -175 -3 -245 -12 -254 -9 -9 -212 -12 -850 -12 l-838 0 0 270 0 270
834 0 c745 0 836 -2 850 -16z"/>
</g>
</svg>
